<svg xmlns="http://www.w3.org/2000/svg" version="1.1" xmlns:xlink="http://www.w3.org/1999/xlink" xmlns:svgjs="http://svgjs.dev/svgjs" width="1000" height="1000"><g clip-path="url(#SvgjsClipPath1180)"><rect width="1000" height="1000" fill="#ffffff"></rect><g transform="matrix(0.6890184243526672,0,0,0.6890184243526672,0,0)"><svg xmlns="http://www.w3.org/2000/svg" version="1.1" xmlns:xlink="http://www.w3.org/1999/xlink" xmlns:svgjs="http://svgjs.dev/svgjs" width="1451.34" height="1451.34"><svg id="_Слой_1" data-name="Слой 1" xmlns="http://www.w3.org/2000/svg" xmlns:xlink="http://www.w3.org/1999/xlink" viewBox="0 0 1451.34 1451.34">
  <defs>
    <style>
      .cls-1 {
        fill: #0c131c;
      }

      .cls-2 {
        fill: #0190ff;
      }

      .cls-3 {
        fill: #e8f0f9;
      }

      .cls-4, .cls-5 {
        fill: #fffefb;
      }

      .cls-5 {
        stroke: url(#_Безымянный_градиент_4);
        stroke-miterlimit: 10;
        stroke-width: 5px;
      }

      .cls-6 {
        fill: #1a212a;
      }
    </style>
    <linearGradient id="_Безымянный_градиент_4" data-name="Безымянный градиент 4" x1="711.32" y1="701.89" x2="1427.3" y2="701.89" gradientTransform="translate(0 1453.17) scale(1 -1)" gradientUnits="userSpaceOnUse">
      <stop offset="0" stop-color="#fff" stop-opacity=".2"></stop>
      <stop offset="1" stop-color="#000" stop-opacity=".2"></stop>
    </linearGradient>
  <clipPath id="SvgjsClipPath1180"><rect width="1000" height="1000" x="0" y="0" rx="500" ry="500"></rect></clipPath></defs>
  <path class="cls-5" d="M903.5,207.44c140.55,2.03,281.1,4.05,421.65,6.09,8.18-.44,22.49,.08,37.84,8.12,15.02,7.86,23.62,19.01,32.43,30.44,6.97,9.04,17.16,22.26,23.43,42.62,1.17,3.8,4.06,13.89,5.41,48.7,.55,14.2,.88,33.58,0,56.82-36.04,259.75-72.08,519.51-108.12,779.26-1.01,12.5-4.05,32.85-14.42,54.79-4.75,10.05-12.17,25.37-27.03,38.56-21.34,18.93-44.94,21.83-55.86,22.32-168.18-1.35-336.36-2.71-504.54-4.05,63.07-361.22,126.13-722.44,189.2-1083.65h0Z"></path>
  <path class="cls-1" d="M934.13,302.82c164.25-2.46,285.13-1.33,313.53,2.03,14.95,1.77,24.74,6.59,30.63,10.15,15.22,9.18,23.44,21.6,30.63,32.47,6.78,10.23,15.76,23.81,19.82,44.65,3.54,18.15,1.72,33.54,0,42.62-31.83,239.46-63.67,478.92-95.5,718.38-1.65,7.33-5.07,18.74-12.61,30.44-11.06,17.15-24.58,25-30.63,28.41-11.64,6.57-22.56,9.13-30.63,10.15-103.31,.68-206.62,1.35-309.93,2.03,28.23-307.1,56.46-614.2,84.69-921.31h0Z"></path>
  <path class="cls-6" d="M979.18,546.34h266.68c5.73,3.2,13.92,8.79,21.62,18.26,12.6,15.5,16.6,32.48,18.02,40.58-28.23,178.58-56.46,357.16-84.69,535.74-3.95,6.97-11.26,17.75-23.43,26.38-22.21,15.75-45.05,13.29-52.26,12.17-81.69,2.03-163.38,4.05-245.06,6.09,33.03-213.08,66.07-426.15,99.11-639.24h0Z"></path>
  <path class="cls-2" d="M435,1325.59c-34.3-55.66-192.43-354.64-403.63-767.08-3.94-11.57-9.16-31.74-7.2-56.82,.49-6.17,3.29-36.89,23.43-66.96,8.33-12.45,17.09-20.99,23.43-26.38,224.04-100.12,448.08-200.22,672.12-300.34,6.75-4.25,17.88-10.03,32.43-12.17,19.6-2.89,34.81,2.4,45.05,6.09,7.13,2.57,22.56,8.31,37.84,22.32,10.42,9.56,20.2,22.43,32.43,50.74,9.59,22.2,21.99,56.89,28.83,103.49,54.66,249.6,109.32,499.21,163.98,748.81,1.62,10.87,3.06,29.21-1.8,50.74-6.68,29.54-21.47,48.52-28.83,56.82-57.02,26.52-114.08,52.9-171.18,79.15-111.53,51.25-223.25,101.99-335.16,152.2-12.99,7.23-31.7,14.46-52.26,10.15-29.23-6.13-48.34-32.68-59.46-50.74h-.02Z"></path>
  <path class="cls-4" d="M213.36,603.16c11.07-7.92,28.9-19.36,52.26-28.41,87.42-33.87,137.26,10.26,282.91,32.47,110,16.77,165,25.16,212.63,20.29,29.39-3.01,90.3-12.01,124.33,28.41,7.42,8.81,11.82,17.9,14.42,24.35,28.23,108.23,56.46,216.46,84.69,324.69,1.41,5.55,3.1,14.92,1.8,26.38-1.7,14.95-7.59,25.47-10.81,30.44-129.14,60.88-258.28,121.76-387.42,182.64-8.86,2.5-21.26,4.85-36.04,4.05-19.83-1.06-35.4-7.3-45.05-12.17-99.71-186.02-199.41-372.04-299.12-558.06-2.45-4.08-10.44-18.47-9.01-38.56,1.44-20.16,11.42-32.95,14.42-36.53h0Z"></path>
  <path class="cls-3" d="M260.21,704.62c5.29-9.02,14.38-21.62,28.83-30.44,16.28-9.93,31.9-10.49,61.27-8.12,57.74,4.66,105.5,15.56,117.13,18.26,22.42,5.22,33.13,8.47,55.86,12.17,22.11,3.61,37.53,4.69,54.05,6.09,52.34,4.42,57.88,7.08,93.7,10.15,87.53,7.51,101.1-4.31,162.17,6.09,32.93,5.61,59.16,14.17,75.68,20.29,21.62,87.93,43.24,175.87,64.87,263.81,1.26,5.64,3.99,20.94-1.8,38.56-6.42,19.53-19.22,29.48-23.43,32.47-121.94,54.79-243.86,109.58-365.8,164.38-9.74,3.02-23.5,5.75-39.65,4.05-10.52-1.1-19.07-3.76-24.64-5.85-8.39-3.16-15.24-7-20.41-10.38-79.28-173.84-158.57-347.68-237.86-521.54h0Z"></path>
</svg></svg></g></g></svg>